<?xml version="1.0" standalone="no"?>
<!DOCTYPE svg PUBLIC "-//W3C//DTD SVG 20010904//EN"
 "http://www.w3.org/TR/2001/REC-SVG-20010904/DTD/svg10.dtd">
<svg version="1.0" xmlns="http://www.w3.org/2000/svg"
 width="16.000000pt" height="16.000000pt" viewBox="0 0 16.000000 16.000000"
 preserveAspectRatio="xMidYMid meet">
<metadata>
Created by potrace 1.11, written by Peter Selinger 2001-2013
</metadata>
<g transform="translate(0.000000,16.000000) scale(0.006154,-0.006154)"
fill="#000000" stroke="none">
<path d="M1202 1873 c-75 -37 -188 -196 -237 -337 l-27 -75 -26 51 c-43 87
-168 206 -278 264 -27 15 -138 50 -184 60 -52 10 -188 7 -245 -5 -27 -6 -81
-21 -118 -33 l-68 -22 6 -65 c3 -37 7 -109 10 -161 10 -179 15 -265 19 -325 3
-33 8 -114 12 -180 4 -66 8 -136 9 -155 2 -19 3 -45 4 -57 1 -19 7 -23 31 -23
29 0 37 -14 31 -52 -2 -12 229 -15 288 -4 195 38 408 193 486 353 15 32 29 59
30 61 2 2 22 -10 45 -27 46 -33 115 -59 188 -70 26 -4 46 -11 46 -17 -6 -37
-17 -174 -15 -194 2 -42 44 -114 81 -138 29 -20 45 -23 88 -20 97 8 128 69
131 253 1 55 4 102 7 105 3 3 33 12 67 21 34 10 71 20 83 24 19 6 23 1 33 -42
32 -126 120 -233 236 -288 98 -46 148 -58 227 -57 141 3 262 72 349 198 39 58
65 130 77 219 10 72 9 428 -1 455 -3 8 -8 33 -11 55 -17 133 -26 155 -61 155
-19 0 -25 5 -25 23 0 40 -14 50 -61 44 -24 -4 -75 -9 -114 -12 -80 -7 -205
-33 -205 -43 0 -4 8 -29 19 -57 49 -129 44 -336 -9 -389 -18 -19 -19 -18 -31
25 -12 44 -15 174 -8 324 l4 80 -36 -3 c-30 -3 -36 0 -36 15 0 65 6 62 -90 47
-111 -17 -214 -42 -230 -56 -7 -6 -13 -24 -13 -41 l0 -30 -20 25 c-27 35 -80
58 -130 58 -49 0 -77 -12 -108 -48 l-23 -27 5 25 c15 93 -105 161 -202 113z
m169 -219 c-11 -27 -36 -110 -56 -184 -21 -74 -38 -136 -40 -138 -1 -1 -16 1
-34 4 -30 6 -31 8 -25 43 11 64 51 152 111 241 32 48 59 86 60 85 2 0 -6 -23
-16 -51z m305 -73 c-3 -4 -6 -58 -7 -120 -1 -109 -2 -111 -23 -105 -11 4 -29
7 -38 6 -28 -1 -23 20 47 203 5 11 7 24 6 28 -1 5 3 6 9 2 6 -3 8 -10 6 -14z
m-1270 -136 c93 -39 76 -207 -27 -261 -17 -8 -32 -14 -34 -12 -4 4 -14 102
-21 206 l-6 82 27 0 c14 0 41 -7 61 -15z"/>
</g>
</svg>
